<svg width="105" height="24" viewBox="0 0 105 24" fill="none" xmlns="http://www.w3.org/2000/svg">
<path d="M0.827785 9.12218V0.158508H2.34878L5.24357 7.29548L8.13837 0.158508H9.682V9.12218H8.16101V6.36326C8.16101 4.5592 8.16101 4.03459 8.24782 3.39675L5.96821 9.12218H4.5227L2.25442 3.40808C2.34123 3.94778 2.35255 4.7932 2.35255 5.91036V9.12218H0.831558H0.827785Z" fill="#141460"/>
<path d="M11.0898 6.09529C11.0898 4.19311 12.3277 2.88347 14.1053 2.88347C15.883 2.88347 17.0719 4.09875 17.0719 5.98584V6.43874L12.5089 6.45007C12.6183 7.51816 13.1844 8.05787 14.1771 8.05787C14.9998 8.05787 15.5395 7.74084 15.7094 7.16339H17.0945C16.8379 8.48812 15.732 9.28448 14.1506 9.28448C12.3466 9.28448 11.086 7.97106 11.086 6.09529H11.0898ZM12.5504 5.4952H15.5924C15.5924 4.66111 15.0149 4.11008 14.1204 4.11008C13.226 4.11008 12.6976 4.5894 12.5504 5.4952Z" fill="#141460"/>
<path d="M17.921 6.11794C17.921 4.23085 19.0231 2.8797 20.8498 2.8797C21.6952 2.8797 22.4425 3.23447 22.8237 3.83457V0H24.3069V9.12219H22.9332L22.835 8.17864C22.4689 8.87687 21.6839 9.2807 20.763 9.2807C19.008 9.2807 17.9173 7.99371 17.9173 6.11794H17.921ZM22.8124 6.06888C22.8124 4.97814 22.1368 4.21576 21.0951 4.21576C20.0535 4.21576 19.4156 4.98946 19.4156 6.06888C19.4156 7.14829 20.0535 7.9069 21.0951 7.9069C22.1368 7.9069 22.8124 7.15962 22.8124 6.06888Z" fill="#141460"/>
<path d="M25.6959 0.943537C25.6959 0.441572 26.0997 0.049057 26.6167 0.049057C27.1338 0.049057 27.5112 0.441572 27.5112 0.943537C27.5112 1.4455 27.1074 1.84934 26.6167 1.84934C26.1035 1.84934 25.6959 1.4455 25.6959 0.943537ZM25.8657 3.06463H27.3603V9.12218H25.8657V3.06463Z" fill="#141460"/>
<path d="M31.5836 2.88347C33.2404 2.88347 34.3689 3.80437 34.5274 5.2612H33.0328C32.863 4.5743 32.3573 4.21953 31.6477 4.21953C30.6929 4.21953 30.055 4.94417 30.055 6.08397C30.055 7.22377 30.6438 7.93709 31.5987 7.93709C32.3459 7.93709 32.8743 7.571 33.0328 6.90674H34.5425C34.3576 8.31829 33.18 9.28448 31.5987 9.28448C29.7606 9.28448 28.5567 8.0088 28.5567 6.08397C28.5567 4.15914 29.7946 2.88347 31.5836 2.88347Z" fill="#141460"/>
<path d="M35.3842 7.39362C35.3842 6.27646 36.1918 5.57824 37.6298 5.46879L39.4452 5.33292V5.19705C39.4452 4.37427 38.9545 4.04592 38.1959 4.04592C37.3128 4.04592 36.8221 4.41202 36.8221 5.04985H35.5464C35.5464 3.73644 36.6259 2.8797 38.2676 2.8797C39.9094 2.8797 40.9058 3.76286 40.9058 5.44237V9.12219H39.5924L39.4829 8.22771C39.2263 8.85422 38.4035 9.28071 37.46 9.28071C36.173 9.28071 35.3879 8.53342 35.3879 7.39362H35.3842ZM39.4527 6.66897V6.35194L38.1884 6.45007C37.2561 6.53688 36.9014 6.84259 36.9014 7.33323C36.9014 7.88426 37.2675 8.156 37.9431 8.156C38.864 8.156 39.4527 7.60497 39.4527 6.67275V6.66897Z" fill="#141460"/>
<path d="M42.3966 9.12219V0H43.8798V9.12219H42.3966Z" fill="#141460"/>
<path d="M48.1258 9.12218L51.3603 0.158508H52.9681L56.2063 9.12218H54.5494L53.8248 7.05016H50.4771L49.7525 9.12218H48.122H48.1258ZM50.9451 5.72542H53.3719L52.3415 2.83063C52.2698 2.59663 52.183 2.32866 52.1566 2.14373C52.1189 2.31356 52.0472 2.5853 51.9604 2.83063L50.9413 5.72542H50.9451Z" fill="#141460"/>
<path d="M56.4894 6.11794C56.4894 4.23085 57.5914 2.8797 59.4181 2.8797C60.2635 2.8797 61.0108 3.23447 61.392 3.83457V0H62.8753V9.12219H61.5015L61.4033 8.17864C61.0372 8.87687 60.2522 9.2807 59.3313 9.2807C57.5763 9.2807 56.4856 7.99371 56.4856 6.11794H56.4894ZM61.3807 6.06888C61.3807 4.97814 60.7051 4.21576 59.6635 4.21576C58.6218 4.21576 57.9839 4.98946 57.9839 6.06888C57.9839 7.14829 58.6218 7.9069 59.6635 7.9069C60.7051 7.9069 61.3807 7.15962 61.3807 6.06888Z" fill="#141460"/>
<path d="M63.7471 3.06464H65.3398L66.3928 5.84998C66.6495 6.57462 66.857 7.19736 66.9325 7.52949C67.0193 7.1483 67.2382 6.51046 67.4949 5.84998L68.5969 3.06464H70.1406L67.6156 9.12219H66.1437L63.7396 3.06464H63.7471Z" fill="#141460"/>
<path d="M70.4425 7.39362C70.4425 6.27646 71.2502 5.57824 72.6881 5.46879L74.5035 5.33292V5.19705C74.5035 4.37427 74.0129 4.04592 73.2543 4.04592C72.3711 4.04592 71.8805 4.41202 71.8805 5.04985H70.6048C70.6048 3.73644 71.6842 2.8797 73.326 2.8797C74.9677 2.8797 75.9641 3.76286 75.9641 5.44237V9.12219H74.6507L74.5413 8.22771C74.2846 8.85422 73.4618 9.28071 72.5183 9.28071C71.2313 9.28071 70.4463 8.53342 70.4463 7.39362H70.4425ZM74.5148 6.66897V6.35194L73.2505 6.45007C72.3183 6.53688 71.9635 6.84259 71.9635 7.33323C71.9635 7.88426 72.3296 8.156 73.0052 8.156C73.9261 8.156 74.5148 7.60497 74.5148 6.67275V6.66897Z" fill="#141460"/>
<path d="M77.4323 9.12219V3.06463H78.8174L78.9382 3.84966C79.3194 3.23825 80.0553 2.8797 80.8743 2.8797C82.3953 2.8797 83.1804 3.82324 83.1804 5.3933V9.12219H81.6858V5.75185C81.6858 4.73282 81.1838 4.24218 80.4101 4.24218C79.4892 4.24218 78.9268 4.88001 78.9268 5.8613V9.12219H77.4323Z" fill="#141460"/>
<path d="M87.3282 2.88347C88.985 2.88347 90.1135 3.80437 90.272 5.2612H88.7775C88.6076 4.5743 88.1019 4.21953 87.3923 4.21953C86.4375 4.21953 85.7996 4.94417 85.7996 6.08397C85.7996 7.22377 86.3884 7.93709 87.3433 7.93709C88.0906 7.93709 88.6189 7.571 88.7775 6.90674H90.2871C90.1022 8.31829 88.9247 9.28448 87.3433 9.28448C85.5053 9.28448 84.3013 8.0088 84.3013 6.08397C84.3013 4.15914 85.5392 2.88347 87.3282 2.88347Z" fill="#141460"/>
<path d="M91.0457 6.09529C91.0457 4.19311 92.2837 2.88347 94.0613 2.88347C95.8389 2.88347 97.0278 4.09875 97.0278 5.98584V6.43874L92.4648 6.45007C92.5743 7.51816 93.1404 8.05787 94.133 8.05787C94.9558 8.05787 95.4955 7.74084 95.6653 7.16339H97.0505C96.7938 8.48812 95.688 9.28448 94.1066 9.28448C92.3025 9.28448 91.042 7.97106 91.042 6.09529H91.0457ZM92.5026 5.4952H95.5446C95.5446 4.66111 94.9671 4.11008 94.0726 4.11008C93.1781 4.11008 92.6498 4.5894 92.5026 5.4952Z" fill="#141460"/>
<path d="M97.8732 6.11794C97.8732 4.23085 98.9753 2.8797 100.802 2.8797C101.647 2.8797 102.395 3.23447 102.776 3.83457V0H104.259V9.12219H102.885L102.787 8.17864C102.421 8.87687 101.636 9.2807 100.715 9.2807C98.9602 9.2807 97.8695 7.99371 97.8695 6.11794H97.8732ZM102.768 6.06888C102.768 4.97814 102.093 4.21576 101.051 4.21576C100.009 4.21576 99.3716 4.98946 99.3716 6.06888C99.3716 7.14829 100.009 7.9069 101.051 7.9069C102.093 7.9069 102.768 7.15962 102.768 6.06888Z" fill="#141460"/>
<path d="M2.39784 20.7504V23.8415H0.827785V14.8778H4.37174C6.1758 14.8778 7.33824 16.0554 7.33824 17.8066C7.33824 19.5578 6.1607 20.7504 4.37174 20.7504H2.39784ZM2.39784 16.2743V19.3502H4.03961C5.11902 19.3502 5.69647 18.7728 5.69647 17.7915C5.69647 16.8102 5.1077 16.2705 4.06603 16.2705H2.39784V16.2743Z" fill="#141460"/>
<path d="M8.46672 23.8377V14.7155H9.94998V23.8377H8.46672Z" fill="#141460"/>
<path d="M11.2521 22.1091C11.2521 20.992 12.0597 20.2938 13.4977 20.1843L15.3131 20.0484V19.9126C15.3131 19.0898 14.8224 18.7614 14.0638 18.7614C13.1807 18.7614 12.69 19.1275 12.69 19.7654H11.4144C11.4144 18.452 12.4938 17.5952 14.1355 17.5952C15.7773 17.5952 16.7737 18.4784 16.7737 20.1579V23.8377H15.4603L15.3508 22.9432C15.0942 23.5697 14.2714 23.9962 13.3279 23.9962C12.0409 23.9962 11.2558 23.2489 11.2558 22.1091H11.2521ZM15.3206 21.3845V21.0675L14.0563 21.1656C13.1241 21.2524 12.7693 21.5581 12.7693 22.0487C12.7693 22.5998 13.1354 22.8715 13.811 22.8715C14.7319 22.8715 15.3206 22.3205 15.3206 21.3883V21.3845Z" fill="#141460"/>
<path d="M18.7174 23.8377V19.0294H17.5512V17.7802H18.7174V15.8931H20.212V17.7802H21.3895V19.0294H20.212V23.8377H18.7174Z" fill="#141460"/>
<path d="M22.7633 17.7802V17.0442C22.7633 15.4024 23.6351 14.7155 24.9448 14.7155C25.1788 14.7155 25.4581 14.7268 25.7185 14.7759V16.0516H25.1901C24.4315 16.0516 24.2466 16.4441 24.2466 17.0442V17.7802H25.6921V19.0294H24.2466V23.8377H22.7633V19.0294H21.8915V17.7802H22.7633Z" fill="#141460"/>
<path d="M29.3493 17.6103C31.225 17.6103 32.5875 18.9086 32.5875 20.7995C32.5875 22.6904 31.225 23.9887 29.3493 23.9887C27.4735 23.9887 26.111 22.6904 26.111 20.7995C26.111 18.9086 27.4735 17.6103 29.3493 17.6103ZM29.3493 22.6488C30.3796 22.6488 31.0891 21.9016 31.0891 20.7957C31.0891 19.6899 30.3796 18.9426 29.3493 18.9426C28.3189 18.9426 27.6093 19.6899 27.6093 20.7957C27.6093 21.9016 28.3189 22.6488 29.3493 22.6488Z" fill="#141460"/>
<path d="M37.577 19.1426H37.0259C35.9465 19.1426 35.2709 19.7201 35.2709 20.8976V23.8415H33.7764V17.7953H35.1879L35.2747 18.6784C35.5313 18.0783 36.1088 17.6745 36.9165 17.6745C37.1241 17.6745 37.3316 17.6971 37.577 17.7613V19.1464V19.1426Z" fill="#141460"/>
<path d="M38.596 23.8377V17.7802H39.9698L40.0906 18.4897C40.3963 17.9877 41.0115 17.5952 41.8795 17.5952C42.8004 17.5952 43.4383 18.0481 43.7553 18.7463C44.061 18.0481 44.7743 17.5952 45.6914 17.5952C47.1634 17.5952 47.971 18.4784 47.971 19.8748V23.8339H46.4878V20.2673C46.4878 19.3955 46.0236 18.9426 45.3102 18.9426C44.5969 18.9426 44.0346 19.4068 44.0346 20.4032V23.8377H42.54V20.256C42.54 19.4106 42.0871 18.9577 41.3738 18.9577C40.6605 18.9577 40.0868 19.4219 40.0868 20.4032V23.8377H38.5922H38.596Z" fill="#141460"/>
</svg>
