<svg width="83" height="24" viewBox="0 0 83 24" fill="none" xmlns="http://www.w3.org/2000/svg">
<path d="M23.6853 -5.09492e-06C25.3648 -0.0301985 26.7877 0.539702 27.9615 1.71347C29.105 2.85705 29.6749 4.2384 29.6749 5.86129V23.9924H24.7723V5.99716C24.7723 5.83865 24.7308 5.68768 24.6515 5.55181C24.5722 5.41594 24.4628 5.30649 24.3269 5.22723C24.1911 5.14797 24.0401 5.10646 23.8816 5.10646C23.4249 5.10646 23.1267 5.32536 22.9909 5.75562L18.4996 21.4185C18.2694 22.1733 17.8429 22.7885 17.2126 23.2678C16.5823 23.7471 15.869 23.9887 15.0689 23.9887C14.2687 23.9887 13.5554 23.7471 12.9251 23.2678C12.2948 22.7885 11.8684 22.1695 11.6381 21.4185L7.15819 5.75939C7.02232 5.32536 6.73548 5.11023 6.30145 5.11023C6.04858 5.11023 5.83345 5.19704 5.64852 5.36688C5.46358 5.53671 5.373 5.74807 5.373 6.00094V23.9962H0.474121V5.91413C0.474121 4.55165 0.896829 3.20427 1.77621 2.1626C2.9915 0.720863 4.51249 -5.09492e-06 6.33542 -5.09492e-06C7.20348 -5.09492e-06 8.0187 0.177381 8.78486 0.532154C9.55102 0.886927 10.2115 1.38512 10.7739 2.02295C11.3324 2.66456 11.7287 3.39298 11.9552 4.21575L15.0726 14.874L18.1901 4.21575C18.5977 2.81176 19.428 1.7097 20.6735 0.902023C21.5718 0.328348 22.6248 0.02264 23.6853 -5.09492e-06Z" fill="#175CFF"/>
<path d="M46.6701 0H54.8374V4.93663H46.9531C46.5191 4.93663 46.0964 5.02343 45.685 5.19327C45.2736 5.36311 44.9188 5.6122 44.6207 5.92923C44.3225 6.25004 44.0961 6.62746 43.9338 7.06149L37.8649 23.9925H32.9283L39.8841 4.66111C40.4049 3.14389 41.3598 1.94748 42.7487 1.06432C43.9187 0.328353 45.2925 0 46.6701 0ZM49.9008 9.94119C49.9008 8.89196 50.3348 8.0541 51.2028 7.43891L54.8374 4.93663V23.9925H49.9008V9.94119Z" fill="#175CFF"/>
<path d="M75.2632 0C77.2485 0 78.9544 0.709546 80.3697 2.12486C81.785 3.54018 82.4946 5.24233 82.4946 7.23133C82.4946 9.22032 81.785 10.9225 80.3697 12.3378C78.9544 13.7569 77.2522 14.4627 75.2632 14.4627H65.2541V23.9925H60.3175V0H75.2632ZM75.3991 9.5298C76.086 9.5298 76.6597 9.26561 77.1239 8.741C77.4258 8.39755 77.6221 7.96352 77.6787 7.51061C77.7429 6.97846 77.6447 6.49536 77.3881 6.05001C77.1805 5.69524 76.9012 5.41595 76.5465 5.21214C76.1917 5.00456 75.8105 4.90266 75.3991 4.90266H65.2541V14.4325L67.6205 11.0055C68.3074 10.0242 69.2434 9.53357 70.4323 9.53357H75.4029L75.3991 9.5298Z" fill="#175CFF"/>
</svg>
