<svg width="16" height="16" viewBox="0 0 16 16" fill="none" xmlns="http://www.w3.org/2000/svg">
<path d="M9.66667 10.0833V14.25C9.66667 14.9404 10.2263 15.5 10.9167 15.5H14.25C14.9404 15.5 15.5 14.9404 15.5 14.25V10.0833C15.5 9.39298 14.9404 8.83333 14.25 8.83333H10.9167C10.2263 8.83333 9.66667 9.39298 9.66667 10.0833Z" fill="#667185"/>
<path d="M0.5 10.0833L0.500001 14.25C0.500001 14.9404 1.05964 15.5 1.75 15.5H5.08333C5.77369 15.5 6.33333 14.9404 6.33333 14.25V10.0833C6.33333 9.39298 5.77369 8.83333 5.08333 8.83333H1.75C1.05964 8.83333 0.5 9.39298 0.5 10.0833Z" fill="#667185"/>
<path d="M0.5 1.75L0.5 5.08333C0.5 5.77369 1.05964 6.33333 1.75 6.33333L14.25 6.33333C14.9404 6.33333 15.5 5.77369 15.5 5.08333V1.75C15.5 1.05964 14.9404 0.5 14.25 0.5L1.75 0.500001C1.05964 0.500001 0.5 1.05964 0.5 1.75Z" fill="#667185"/>
</svg>
